<svg id="Grupo_6831" data-name="Grupo 6831" xmlns="http://www.w3.org/2000/svg" width="19" height="20.51" viewBox="0 0 19 20.51">
  <g id="Grupo_6827" data-name="Grupo 6827" transform="translate(0 0)">
    <path id="Caminho_2980" data-name="Caminho 2980" d="M75.243,70.378H72.528v-1a.6.6,0,0,0-1.2,0v1h-6.7v-1a.6.6,0,0,0-1.2,0v1h-2.8a2.193,2.193,0,0,0-2.19,2.19V87.1a2.193,2.193,0,0,0,2.19,2.189H75.243A2.192,2.192,0,0,0,77.432,87.1V72.568A2.193,2.193,0,0,0,75.243,70.378ZM59.632,75.62h16.6V87.1a.99.99,0,0,1-.989.989H60.622a.99.99,0,0,1-.99-.989Zm4.395-2.35a.6.6,0,0,0,.6-.6V71.578h6.7V72.67a.6.6,0,0,0,1.2,0V71.578h2.715a.99.99,0,0,1,.989.989V74.42h-16.6V72.568a.99.99,0,0,1,.99-.989h2.8V72.67A.6.6,0,0,0,64.027,73.27Z" transform="translate(-58.432 -68.777)" fill="#55565c"/>
  </g>
  <g id="Grupo_6828" data-name="Grupo 6828" transform="translate(3.214 8.857)">
    <path id="Caminho_2981" data-name="Caminho 2981" d="M63.909,81.973a.688.688,0,1,0,.688.689A.688.688,0,0,0,63.909,81.973Z" transform="translate(-63.22 -81.973)" fill="#55565c"/>
    <path id="Caminho_2982" data-name="Caminho 2982" d="M69.469,81.973a.688.688,0,1,0,.689.689A.688.688,0,0,0,69.469,81.973Z" transform="translate(-65.049 -81.973)" fill="#55565c"/>
    <path id="Caminho_2983" data-name="Caminho 2983" d="M75.029,81.973a.688.688,0,1,0,.689.689A.688.688,0,0,0,75.029,81.973Z" transform="translate(-66.877 -81.973)" fill="#55565c"/>
    <path id="Caminho_2984" data-name="Caminho 2984" d="M80.59,81.973a.688.688,0,1,0,.688.689A.688.688,0,0,0,80.59,81.973Z" transform="translate(-68.705 -81.973)" fill="#55565c"/>
  </g>
  <g id="Grupo_6829" data-name="Grupo 6829" transform="translate(3.214 12.247)">
    <path id="Caminho_2985" data-name="Caminho 2985" d="M63.909,87.024a.688.688,0,1,0,.688.689A.688.688,0,0,0,63.909,87.024Z" transform="translate(-63.22 -87.024)" fill="#55565c"/>
    <path id="Caminho_2986" data-name="Caminho 2986" d="M69.469,87.024a.688.688,0,1,0,.689.689A.688.688,0,0,0,69.469,87.024Z" transform="translate(-65.049 -87.024)" fill="#55565c"/>
    <path id="Caminho_2987" data-name="Caminho 2987" d="M75.029,87.024a.688.688,0,1,0,.689.689A.688.688,0,0,0,75.029,87.024Z" transform="translate(-66.877 -87.024)" fill="#55565c"/>
    <path id="Caminho_2988" data-name="Caminho 2988" d="M80.59,87.024a.688.688,0,1,0,.688.689A.688.688,0,0,0,80.59,87.024Z" transform="translate(-68.705 -87.024)" fill="#55565c"/>
  </g>
  <g id="Grupo_6830" data-name="Grupo 6830" transform="translate(3.214 15.637)">
    <path id="Caminho_2989" data-name="Caminho 2989" d="M63.909,92.075a.689.689,0,1,0,.688.689A.689.689,0,0,0,63.909,92.075Z" transform="translate(-63.22 -92.075)" fill="#55565c"/>
    <path id="Caminho_2990" data-name="Caminho 2990" d="M69.469,92.075a.689.689,0,1,0,.689.689A.689.689,0,0,0,69.469,92.075Z" transform="translate(-65.049 -92.075)" fill="#55565c"/>
    <path id="Caminho_2991" data-name="Caminho 2991" d="M75.029,92.075a.689.689,0,1,0,.689.689A.689.689,0,0,0,75.029,92.075Z" transform="translate(-66.877 -92.075)" fill="#55565c"/>
  </g>
</svg>
